# xmcd
#
# Track frame offsets:
#	150
#	25820
#	43872
#	70725
#	98722
#	113505
#	137852
#	155132
#	178045
#	197627
#	234025
#	246492
#	268630
#
# Disc length: 3738
#
# Revision: 1
# Processed by: cddbd v1.5.1PL0 Copyright (c) Steve Scherf et al.
# Submitted via: CDex 1.50
# Normalized: r0:DSETVAR1
#
DISCID=b00e980d
DTITLE=Various Artist - The Jazz Vocal Sampler
DYEAR=2000
DGENRE=Jazz
TTITLE0=Afro Blue - Dianne Reeves
TTITLE1=The Continental - Eliane Elias
TTITLE2=I've Got Just About Everything - Bob Dorough
TTITLE3=Resurrection Blues - Cassandra Wilson
TTITLE4=You'd Be So Nice To Came Home To - Kei Kobayashi
TTITLE5=Snow - Caecilie Norby
TTITLE6=Oh My God - Kurt Elling
TTITLE7=I'm Gonna Go Fishin' - Dr. John
TTITLE8=Smooth Operator - Sanne Salomonsen
TTITLE9=You and The Night and The Music - Patricia Barber
TTITLE10=Miser's Serenade - Chris Connor
TTITLE11=Lullaby Of Birdland - Mel Torme
TTITLE12=Why Do I Love You - Helen Carr
EXTD=YEAR: 2000
EXTT0=
EXTT1=
EXTT2=
EXTT3=
EXTT4=
EXTT5=
EXTT6=
EXTT7=
EXTT8=
EXTT9=
EXTT10=
EXTT11=
EXTT12=
PLAYORDER=
